<svg xmlns="http://www.w3.org/2000/svg" viewBox="0 0 100 125"><defs fill="#4db581"><style>.cls-1{isolation:isolate;}.cls-2{fill:#fffffffff;}.cls-3{fill:#4565bf;}.cls-4{fill:#ffffff;}.cls-5{mix-blend-mode:multiply;}.cls-6{fill:#ececec;}</style></defs><g class="cls-1"><g id="Layer_1" data-name="Layer 1"><path class="cls-2" d="M76.41,35.78H66.13a16.85,16.85,0,0,0-30,0H25.87a7.53,7.53,0,0,0-7.53,7.52V93a7.52,7.52,0,0,0,7.53,7.52H76.41A7.52,7.52,0,0,0,83.94,93V43.3A7.53,7.53,0,0,0,76.41,35.78Z" fill="#4db581"/><path class="cls-3" d="M74.13,33.61H63.85a16.85,16.85,0,0,0-30,0H23.59a7.52,7.52,0,0,0-7.53,7.52V90.86a7.53,7.53,0,0,0,7.53,7.52H74.13a7.53,7.53,0,0,0,7.53-7.52V41.13A7.52,7.52,0,0,0,74.13,33.61Z" fill="#4db581"/><path class="cls-2" d="M75.67,62.89c.85-5.91,1.16-15.36-5.29-18.44-5-2.39-12.93-1.85-15.5,2.79a6.87,6.87,0,0,1-12,0c-2.57-4.64-10.48-5.18-15.49-2.79C20.89,47.53,21.2,57,22.05,62.89c.37,2.57.84,5.14,1,7.75a59.09,59.09,0,0,1-.47,7.63c-.28,3.38-.93,6.91.11,10.23,1.84,5.88,9.54,7.22,14.85,6.6a11,11,0,0,0,5.55-2c1.73-1.36,2.47-3.76,4.09-5.24,3.5-3.19,5.49,3.63,7.53,5.24a11,11,0,0,0,5.56,2c5.3.62,13-.72,14.84-6.6,1-3.32.39-6.85.11-10.23a59.09,59.09,0,0,1-.47-7.63C74.83,68,75.3,65.46,75.67,62.89Z" fill="#4db581"/><path class="cls-4" d="M63.24,41.08A14.65,14.65,0,0,0,48.86,26.63,14.66,14.66,0,0,0,34.48,41.08Z" fill="#4db581"/><rect class="cls-3" x="48.4" y="27.78" width="0.92" height="2.69" fill="#4db581"/><rect class="cls-3" x="58.6" y="39.32" width="2.69" height="0.92" fill="#4db581"/><rect class="cls-3" x="36.43" y="39.32" width="2.69" height="0.92" fill="#4db581"/><rect class="cls-3" x="58.18" y="36.76" width="2.69" height="0.92" transform="translate(-7.93 17.76) rotate(-15.93)" fill="#4db581"/><rect class="cls-3" x="57" y="34.06" width="2.69" height="0.92" transform="translate(-9.44 35.33) rotate(-31.3)" fill="#4db581"/><rect class="cls-3" x="55.14" y="31.76" width="2.69" height="0.92" transform="translate(-5.75 51.09) rotate(-46.57)" fill="#4db581"/><rect class="cls-3" x="52.75" y="30.03" width="2.69" height="0.92" transform="translate(1.67 63.77) rotate(-61.82)" fill="#4db581"/><rect class="cls-3" x="49.98" y="29" width="2.69" height="0.92" transform="translate(11.2 72.95) rotate(-77.16)" fill="#4db581"/><rect class="cls-3" x="37.75" y="35.86" width="0.92" height="2.69" transform="translate(-8.09 63.69) rotate(-74.01)" fill="#4db581"/><rect class="cls-3" x="38.93" y="33.16" width="0.92" height="2.69" transform="matrix(0.52, -0.85, 0.85, 0.52, -10.55, 50.25)" fill="#4db581"/><rect class="cls-3" x="40.79" y="30.86" width="0.92" height="2.69" transform="translate(-10.86 37.08) rotate(-43.32)" fill="#4db581"/><rect class="cls-3" x="43.19" y="29.14" width="0.92" height="2.69" transform="translate(-9.21 24.12) rotate(-28.07)" fill="#4db581"/><rect class="cls-3" x="45.96" y="28.11" width="0.92" height="2.69" transform="translate(-5.37 11) rotate(-12.78)" fill="#4db581"/><path class="cls-2" d="M51.14,41.08a2.28,2.28,0,0,0-4.56,0Z" fill="#4db581"/><polygon class="cls-2" points="48.72 39.02 50.13 39.97 53.09 34.04 48.72 39.02" fill="#4db581"/><path class="cls-3" d="M27,49.9a9.31,9.31,0,0,1,7.61-3.23c3.14,0,5.89.91,7.55,3.62,2.89,4.72,1,11.8,0,16.86a35.39,35.39,0,0,0-1,8.72c.12,2.91,1.17,5.43,1.15,8.31,0,6.32-7.1,10.8-12.53,6.76a12.67,12.67,0,0,1-4.16-7.41c-.47-3.22.61-6,.75-9,.25-5.45-2.15-10.42-2.11-16A13.52,13.52,0,0,1,27,49.9Z" fill="#4db581"/><path class="cls-3" d="M70.75,49.9a9.31,9.31,0,0,0-7.61-3.23c-3.14,0-5.89.91-7.55,3.62-2.89,4.72-1,11.8,0,16.86a35.39,35.39,0,0,1,1,8.72c-.12,2.91-1.17,5.43-1.15,8.31,0,6.32,7.11,10.8,12.53,6.76a12.67,12.67,0,0,0,4.16-7.41c.47-3.22-.61-6-.75-9-.25-5.45,2.15-10.42,2.12-16A13.58,13.58,0,0,0,70.75,49.9Z" fill="#4db581"/><g class="cls-5"><path class="cls-6" d="M29.78,90.94a7.23,7.23,0,0,0,.61.41h7.82a7.88,7.88,0,0,0,1.25-.92H29.18A5.78,5.78,0,0,0,29.78,90.94Z" fill="#4db581"/><path class="cls-6" d="M28.39,89.58H40.3a9.26,9.26,0,0,0,.68-.93H27.7A11.21,11.21,0,0,0,28.39,89.58Z" fill="#4db581"/><path class="cls-6" d="M27.18,87.8H41.46a8.1,8.1,0,0,0,.38-.92H26.7C26.85,87.19,27,87.5,27.18,87.8Z" fill="#4db581"/><path class="cls-6" d="M26.32,86H42.09a9.3,9.3,0,0,0,.16-.92H26C26.09,85.41,26.2,85.71,26.32,86Z" fill="#4db581"/><path class="cls-6" d="M25.6,83.32c0,.07,0,.14,0,.21,0,.23.09.47.14.72H42.31v-.07c0-.29,0-.57,0-.86Z" fill="#4db581"/><path class="cls-6" d="M42.07,81.55H25.51c0,.3,0,.61,0,.92H42.21C42.17,82.16,42.12,81.85,42.07,81.55Z" fill="#4db581"/><path class="cls-6" d="M41.92,80.69c-.06-.3-.13-.61-.19-.92H25.66c0,.31-.08.61-.1.92Z" fill="#4db581"/><path class="cls-6" d="M25.78,78.92H41.56c-.06-.31-.12-.62-.17-.93H25.93C25.88,78.3,25.82,78.61,25.78,78.92Z" fill="#4db581"/><path class="cls-6" d="M41.27,77.14c0-.3-.07-.61-.09-.92h-15c0,.31-.09.61-.14.92Z" fill="#4db581"/><path class="cls-6" d="M26.37,74.5c0,.29,0,.58-.06.86H41.15v-.92H26.37Z" fill="#4db581"/><path class="cls-6" d="M41.24,72.66H26.36l0,.93H41.18Z" fill="#4db581"/><path class="cls-6" d="M41.45,70.89H26.19c0,.3.07.61.1.92h15Z" fill="#4db581"/><path class="cls-6" d="M41.74,69.11H25.91c.06.31.11.62.16.92H41.58C41.63,69.73,41.68,69.42,41.74,69.11Z" fill="#4db581"/><path class="cls-6" d="M42.08,67.33H25.56c.06.31.13.62.19.93H41.9Z" fill="#4db581"/><path class="cls-6" d="M25.38,66.48H42.26c.06-.3.13-.61.19-.92H25.18C25.24,65.87,25.31,66.17,25.38,66.48Z" fill="#4db581"/><path class="cls-6" d="M25,64.7H42.63c.07-.3.13-.61.19-.92h-18C24.87,64.09,24.93,64.4,25,64.7Z" fill="#4db581"/><path class="cls-6" d="M24.66,62.93H43c0-.31.11-.62.16-.93H24.52C24.56,62.31,24.61,62.62,24.66,62.93Z" fill="#4db581"/><path class="cls-6" d="M24.41,61.15H43.29c.05-.31.09-.61.13-.92H24.32C24.34,60.54,24.37,60.84,24.41,61.15Z" fill="#4db581"/><path class="cls-6" d="M24.26,58.54c0,.28,0,.56,0,.83H43.52c0-.3.06-.61.09-.92H24.26Z" fill="#4db581"/><path class="cls-6" d="M24.37,56.67c0,.31-.06.62-.08.93H43.65c0-.31,0-.62,0-.93Z" fill="#4db581"/><path class="cls-6" d="M43.58,54.9H24.64c-.06.3-.11.61-.16.92H43.65C43.64,55.51,43.61,55.2,43.58,54.9Z" fill="#4db581"/><path class="cls-6" d="M43.28,53.12H25.17c-.11.3-.21.61-.3.92H43.46C43.41,53.73,43.35,53.42,43.28,53.12Z" fill="#4db581"/><path class="cls-6" d="M42.68,51.34H26a10.12,10.12,0,0,0-.47.93H43A9.38,9.38,0,0,0,42.68,51.34Z" fill="#4db581"/><path class="cls-6" d="M42.13,50.29a6.58,6.58,0,0,0-.51-.72H27.26L27,49.9c-.16.19-.3.39-.44.59H42.24C42.2,50.43,42.17,50.36,42.13,50.29Z" fill="#4db581"/><path class="cls-6" d="M39.53,47.79h-10a9.56,9.56,0,0,0-1.39.92H40.82A6.88,6.88,0,0,0,39.53,47.79Z" fill="#4db581"/></g><g class="cls-5"><path class="cls-6" d="M67.94,90.94a5.91,5.91,0,0,1-.61.41H59.51a7.88,7.88,0,0,1-1.25-.92H68.54A5.78,5.78,0,0,1,67.94,90.94Z" fill="#4db581"/><path class="cls-6" d="M69.34,89.58H57.43a8,8,0,0,1-.69-.93H70A11.13,11.13,0,0,1,69.34,89.58Z" fill="#4db581"/><path class="cls-6" d="M70.54,87.8H56.26c-.14-.3-.27-.61-.38-.92H71C70.87,87.19,70.71,87.5,70.54,87.8Z" fill="#4db581"/><path class="cls-6" d="M71.4,86H55.63a9.3,9.3,0,0,1-.16-.92H71.73C71.63,85.41,71.52,85.71,71.4,86Z" fill="#4db581"/><path class="cls-6" d="M72.12,83.32c0,.07,0,.14,0,.21,0,.23-.09.47-.14.72H55.41v-.07c0-.29,0-.57,0-.86Z" fill="#4db581"/><path class="cls-6" d="M55.65,81.55H72.21c0,.3,0,.61,0,.92H55.52C55.55,82.16,55.6,81.85,55.65,81.55Z" fill="#4db581"/><path class="cls-6" d="M55.8,80.69c.06-.3.13-.61.19-.92H72.07c0,.31.07.61.1.92Z" fill="#4db581"/><path class="cls-6" d="M72,78.92H56.16c.06-.31.12-.62.17-.93H71.79C71.85,78.3,71.9,78.61,72,78.92Z" fill="#4db581"/><path class="cls-6" d="M56.45,77.14c0-.3.07-.61.09-.92h15c0,.31.09.61.14.92Z" fill="#4db581"/><path class="cls-6" d="M71.35,74.5c0,.29,0,.58.06.86H56.57c0-.31,0-.61,0-.92H71.35Z" fill="#4db581"/><path class="cls-6" d="M56.48,72.66H71.36c0,.31,0,.62,0,.93H56.54C56.53,73.28,56.5,73,56.48,72.66Z" fill="#4db581"/><path class="cls-6" d="M56.27,70.89H71.53c0,.3-.07.61-.1.92h-15Z" fill="#4db581"/><path class="cls-6" d="M56,69.11H71.81c-.06.31-.11.62-.16.92H56.14C56.09,69.73,56,69.42,56,69.11Z" fill="#4db581"/><path class="cls-6" d="M55.64,67.33H72.16c-.06.31-.13.62-.19.93H55.82Z" fill="#4db581"/><path class="cls-6" d="M72.35,66.48H55.46c-.06-.3-.13-.61-.19-.92H72.54C72.48,65.87,72.41,66.17,72.35,66.48Z" fill="#4db581"/><path class="cls-6" d="M72.72,64.7H55.09c-.07-.3-.13-.61-.19-.92h18C72.85,64.09,72.79,64.4,72.72,64.7Z" fill="#4db581"/><path class="cls-6" d="M73.06,62.93H54.74c-.06-.31-.12-.62-.17-.93H73.21Z" fill="#4db581"/><path class="cls-6" d="M73.31,61.15H54.43c0-.31-.09-.61-.13-.92H73.4C73.38,60.54,73.35,60.84,73.31,61.15Z" fill="#4db581"/><path class="cls-6" d="M73.47,58.54c0,.28,0,.56,0,.83H54.2c0-.3-.06-.61-.09-.92H73.46S73.47,58.51,73.47,58.54Z" fill="#4db581"/><path class="cls-6" d="M73.35,56.67c0,.31.06.62.08.93H54.07c0-.31,0-.62,0-.93Z" fill="#4db581"/><path class="cls-6" d="M54.14,54.9H73.08c.06.3.11.61.16.92H54.07C54.09,55.51,54.11,55.2,54.14,54.9Z" fill="#4db581"/><path class="cls-6" d="M54.45,53.12h18.1c.11.3.22.61.31.92H54.26A9.37,9.37,0,0,1,54.45,53.12Z" fill="#4db581"/><path class="cls-6" d="M55.05,51.34H71.74c.16.3.32.61.47.93H54.69A7.45,7.45,0,0,1,55.05,51.34Z" fill="#4db581"/><path class="cls-6" d="M55.59,50.29a6.64,6.64,0,0,1,.52-.72H70.46l.29.33c.16.19.3.39.44.59H55.48C55.52,50.43,55.55,50.36,55.59,50.29Z" fill="#4db581"/><path class="cls-6" d="M58.19,47.79h10a9.56,9.56,0,0,1,1.39.92H56.9A7.22,7.22,0,0,1,58.19,47.79Z" fill="#4db581"/></g></g></g></svg>